<?xml version="1.0" encoding="utf-8"?>
<!-- Generator: Adobe Illustrator 27.5.0, SVG Export Plug-In . SVG Version: 6.00 Build 0)  -->
<svg version="1.1" xmlns="http://www.w3.org/2000/svg" xmlns:xlink="http://www.w3.org/1999/xlink" x="0px" y="0px"
	 viewBox="0 0 750 500" style="enable-background:new 0 0 750 500;" xml:space="preserve">
<g id="BACKGROUND">
	<rect id="XMLID_69_" style="fill:#FFFFFF;" width="750" height="500"/>
</g>
<g id="OBJECTS">
	<g id="XMLID_58_">
		<g id="XMLID_439_">
			<g id="XMLID_568_">
				<path id="XMLID_569_" style="fill:none;stroke:#35A8E0;stroke-width:4.9986;stroke-miterlimit:10;" d="M97.853,308.889
					c-14.25,0-25.843-11.594-25.843-25.844v-40.489c0-14.25,11.593-25.843,25.843-25.843c13.407,0,24.462,10.261,25.723,23.343
					h-14.028c-1.119-5.46-5.856-9.448-11.695-9.448c-6.699,0-11.947,5.248-11.947,11.947v40.489c0,6.699,5.248,11.947,11.947,11.947
					c5.839,0,10.576-3.987,11.695-9.448h14.028C122.316,298.627,111.261,308.889,97.853,308.889z"/>
			</g>
			<g id="XMLID_564_">
				<path id="XMLID_565_" style="fill:none;stroke:#35A8E0;stroke-width:4.9986;stroke-miterlimit:10;" d="M194.473,307.539
					l-18.355-33.066h-9.234v33.066h-13.895v-89.476h23.548c15.252,0,28.137,12.885,28.137,28.137
					c0,10.234-5.559,19.688-14.507,24.674l-2.179,1.215l19.665,35.45H194.473z M166.883,260.577h9.653
					c7.853,0,14.241-6.389,14.241-14.242c0-7.927-6.389-14.376-14.241-14.376h-9.653V260.577z"/>
			</g>
			<g id="XMLID_560_">
				<polygon id="XMLID_561_" style="fill:none;stroke:#35A8E0;stroke-width:4.9986;stroke-miterlimit:10;" points="237.339,307.539 
					237.339,218.063 284.301,218.063 284.301,231.959 251.235,231.959 251.235,255.853 284.301,255.853 284.301,269.749 
					251.235,269.749 251.235,293.643 284.301,293.643 284.301,307.539 				"/>
			</g>
			<g id="XMLID_552_">
				<path id="XMLID_553_" style="fill:none;stroke:#35A8E0;stroke-width:4.9986;stroke-miterlimit:10;" d="M362.893,307.539
					l-7.018-23.619h-27.338l-7.153,23.619h-13.681l26.842-89.476h15.176l26.842,89.476H362.893z M332.715,270.023h18.996
					l-9.603-31.729L332.715,270.023z"/>
			</g>
			<g id="XMLID_548_">
				<polygon id="XMLID_549_" style="fill:none;stroke:#35A8E0;stroke-width:4.9986;stroke-miterlimit:10;" points="410.091,307.539 
					410.091,231.959 386.472,231.959 386.472,218.063 447.606,218.063 447.606,231.959 423.987,231.959 423.987,307.539 				"/>
			</g>
			<g id="XMLID_546_">
				
					<rect id="XMLID_547_" x="471.497" y="218.063" style="fill:none;stroke:#35A8E0;stroke-width:4.9986;stroke-miterlimit:10;" width="13.897" height="89.476"/>
			</g>
			<g id="XMLID_544_">
				<polygon id="XMLID_545_" style="fill:none;stroke:#35A8E0;stroke-width:4.9986;stroke-miterlimit:10;" points="536.989,307.539 
					510.146,218.063 523.822,218.063 544.577,287.296 565.332,218.063 579.008,218.063 552.165,307.539 				"/>
			</g>
			<g id="XMLID_542_">
				<polygon id="XMLID_543_" style="fill:none;stroke:#35A8E0;stroke-width:4.9986;stroke-miterlimit:10;" points="603.76,307.539 
					603.76,218.063 650.724,218.063 650.724,231.959 617.657,231.959 617.657,255.853 650.724,255.853 650.724,269.749 
					617.657,269.749 617.657,293.643 650.724,293.643 650.724,307.539 				"/>
			</g>
		</g>
		<g id="XMLID_96_">
			<path id="XMLID_576_" style="fill:#FFDD00;" d="M77.009,275.547v-40.489c0-15.656,12.687-28.342,28.342-28.342
				c15.656,0,28.342,12.686,28.342,28.342h-18.895c0-5.264-4.184-9.448-9.447-9.448c-5.264,0-9.448,4.184-9.448,9.448v40.489
				c0,5.264,4.184,9.448,9.448,9.448c5.264,0,9.447-4.185,9.447-9.448h18.895c0,15.656-12.687,28.343-28.342,28.343
				C89.696,303.89,77.009,291.203,77.009,275.547z"/>
			<path id="XMLID_573_" style="fill:#FFDD00;" d="M157.986,208.066h26.048c16.735,0,30.637,13.901,30.637,30.637
				c0,11.472-6.343,21.594-15.791,26.858l20.514,36.98H200.5l-18.355-33.066h-5.264v33.066h-18.895V208.066z M184.034,250.579
				c6.479,0,11.742-5.264,11.742-11.742c0-6.613-5.263-11.877-11.742-11.877h-7.153v23.619H184.034z"/>
			<path id="XMLID_571_" style="fill:#FFDD00;" d="M242.338,208.066h51.961v18.895h-33.066v18.895h33.066v18.895h-33.066v18.895
				h33.066v18.895h-51.961V208.066z"/>
			<path id="XMLID_562_" style="fill:#FFDD00;" d="M340.184,208.066h18.895l28.342,94.475h-18.895l-7.018-23.619H337.89
				l-7.153,23.619h-18.895L340.184,208.066z M355.841,260.027l-6.209-20.515l-6.073,20.515H355.841z"/>
			<path id="XMLID_558_" style="fill:#FFDD00;" d="M415.09,226.96H391.47v-18.895h66.133v18.895h-23.619v75.58H415.09V226.96z"/>
			<path id="XMLID_554_" style="fill:#FFDD00;" d="M476.496,208.066h18.896v94.475h-18.896V208.066z"/>
			<path id="XMLID_550_" style="fill:#FFDD00;" d="M514.285,208.066h18.895l18.895,63.028l18.894-63.028h18.896l-28.343,94.475
				h-18.895L514.285,208.066z"/>
			<path id="XMLID_530_" style="fill:#FFDD00;" d="M608.759,208.066h51.962v18.895h-33.066v18.895h33.066v18.895h-33.066v18.895
				h33.066v18.895h-51.962V208.066z"/>
		</g>
		<g id="XMLID_263_">
			<path id="XMLID_440_" style="fill:#E5007E;" d="M84.507,268.049V227.56c0-15.656,12.687-28.342,28.342-28.342
				c15.656,0,28.342,12.687,28.342,28.342h-18.895c0-5.264-4.184-9.448-9.447-9.448c-5.264,0-9.448,4.184-9.448,9.448v40.489
				c0,5.264,4.184,9.448,9.448,9.448c5.264,0,9.447-4.185,9.447-9.448h18.895c0,15.656-12.686,28.343-28.342,28.343
				C97.193,296.392,84.507,283.705,84.507,268.049z M129.585,284.785c3.239-3.375,5.534-7.559,6.479-12.013h-9.852
				c-1.89,5.534-7.153,9.448-13.361,9.448c-2.024,0-4.049-0.405-5.804-1.215c-0.405-0.271-0.54-0.135-0.405,0.27
				c2.16,4.185,5.264,7.559,9.178,10.258C120.947,290.859,125.806,288.564,129.585,284.785z M136.063,222.837
				c-0.945-4.454-3.239-8.638-6.479-12.012c-3.779-3.779-8.638-6.073-13.766-6.748c-3.779,2.699-6.883,6.073-9.042,10.122
				c-0.135,0.405,0,0.54,0.405,0.405c1.754-0.81,3.644-1.215,5.668-1.215c6.209,0,11.472,3.914,13.361,9.448H136.063z"/>
			<path id="XMLID_444_" style="fill:#E5007E;" d="M165.484,200.568h26.048c16.735,0,30.637,13.901,30.637,30.637
				c0,11.472-6.343,21.594-15.79,26.857l20.514,36.98h-18.895l-18.355-33.066h-5.264v33.066h-18.895V200.568z M191.532,257.252
				c14.306,0,25.913-11.606,25.913-25.913c0-14.441-11.472-26.048-25.913-26.048h-7.153v9.447h7.153
				c9.043,0,16.466,7.423,16.466,16.601c0,9.043-7.423,16.466-16.466,16.466h-7.153v9.447H191.532z M191.532,243.081
				c6.479,0,11.742-5.264,11.742-11.742c0-6.613-5.263-11.877-11.742-11.877h-7.153v23.619H191.532z"/>
			<path id="XMLID_448_" style="fill:#E5007E;" d="M249.836,200.568h51.961v18.895H268.73v18.895h33.066v18.895H268.73v18.896
				h33.066v18.895h-51.961V200.568z M297.073,252.529v-9.447H268.73v9.447H297.073z"/>
			<path id="XMLID_531_" style="fill:#E5007E;" d="M347.682,200.568h18.895l28.342,94.475h-18.895l-7.018-23.619h-23.619
				l-7.153,23.619H319.34L347.682,200.568z M363.339,252.529l-6.208-20.515l-6.073,20.515H363.339z M388.577,290.319L364.148,208.8
				l-4.589,14.982l19.975,66.537H388.577z"/>
			<path id="XMLID_539_" style="fill:#E5007E;" d="M422.587,219.462h-23.619v-18.895h66.133v18.895h-23.619v75.58h-18.895V219.462z
				 M436.758,290.319v-70.856h-9.447v70.856H436.758z"/>
			<path id="XMLID_578_" style="fill:#E5007E;" d="M483.994,200.568h18.895v94.475h-18.895V200.568z"/>
			<path id="XMLID_580_" style="fill:#E5007E;" d="M521.783,200.568h18.896l18.894,63.028l18.895-63.028h18.896l-28.343,94.475
				h-18.895L521.783,200.568z M591.019,205.291h-9.042l-19.975,66.537l4.589,14.982L591.019,205.291z"/>
			<path id="XMLID_583_" style="fill:#E5007E;" d="M616.256,200.568h51.962v18.895h-33.066v18.895h33.066v18.895h-33.066v18.896
				h33.066v18.895h-51.962V200.568z M663.494,252.529v-9.447h-28.342v9.447H663.494z"/>
		</g>
		<g id="XMLID_74_">
			<g id="XMLID_614_">
				<path id="XMLID_627_" style="fill:#2D2E82;" d="M114.139,273.778c-0.135-0.404,0-0.54,0.405-0.27
					c1.755,0.81,3.779,1.215,5.804,1.215c6.209,0,11.472-3.914,13.361-9.448h9.853c-0.945,4.454-3.239,8.638-6.479,12.013
					c-3.779,3.778-8.638,6.073-13.766,6.748C119.402,281.336,116.298,277.962,114.139,273.778z M120.347,205.891
					c-2.024,0-3.914,0.405-5.668,1.215c-0.405,0.135-0.54,0-0.405-0.405c2.159-4.049,5.263-7.423,9.042-10.122
					c5.128,0.675,9.987,2.969,13.766,6.748c3.239,3.374,5.534,7.558,6.479,12.012h-9.853
					C131.819,209.805,126.556,205.891,120.347,205.891z"/>
				<path id="XMLID_625_" style="fill:#2D2E82;" d="M191.876,240.307h7.153c9.042,0,16.466-7.423,16.466-16.466
					c0-9.177-7.423-16.601-16.466-16.601h-7.153v-9.447h7.153c14.441,0,25.913,11.607,25.913,26.048
					c0,14.307-11.607,25.913-25.913,25.913h-7.153V240.307z"/>
				<path id="XMLID_623_" style="fill:#2D2E82;" d="M276.228,235.583h28.343v9.447h-28.343V235.583z"/>
				<path id="XMLID_621_" style="fill:#2D2E82;" d="M367.057,216.284l4.589-14.981l24.429,81.519h-9.043L367.057,216.284z"/>
				<path id="XMLID_619_" style="fill:#2D2E82;" d="M434.809,211.964h9.447v70.857h-9.447V211.964z"/>
				<path id="XMLID_617_" style="fill:#2D2E82;" d="M569.5,264.331l19.975-66.537h9.042l-24.428,81.519L569.5,264.331z"/>
				<path id="XMLID_615_" style="fill:#2D2E82;" d="M642.65,235.583h28.342v9.447H642.65V235.583z"/>
			</g>
			<g id="XMLID_532_">
				<path id="XMLID_611_" style="fill:none;stroke:#2D2E82;stroke-width:4.9986;stroke-miterlimit:500;" d="M114.139,273.778
					c-0.135-0.404,0-0.54,0.405-0.27c1.755,0.81,3.779,1.215,5.804,1.215c6.209,0,11.472-3.914,13.361-9.448h9.853
					c-0.945,4.454-3.239,8.638-6.479,12.013c-3.779,3.778-8.638,6.073-13.766,6.748
					C119.402,281.336,116.298,277.962,114.139,273.778z M120.347,205.891c-2.024,0-3.914,0.405-5.668,1.215
					c-0.405,0.135-0.54,0-0.405-0.405c2.159-4.049,5.263-7.423,9.042-10.122c5.128,0.675,9.987,2.969,13.766,6.748
					c3.239,3.374,5.534,7.558,6.479,12.012h-9.853C131.819,209.805,126.556,205.891,120.347,205.891z"/>
				<path id="XMLID_609_" style="fill:none;stroke:#2D2E82;stroke-width:4.9986;stroke-miterlimit:500;" d="M191.876,240.307h7.153
					c9.042,0,16.466-7.423,16.466-16.466c0-9.177-7.423-16.601-16.466-16.601h-7.153v-9.447h7.153
					c14.441,0,25.913,11.607,25.913,26.048c0,14.307-11.607,25.913-25.913,25.913h-7.153V240.307z"/>
				<path id="XMLID_607_" style="fill:none;stroke:#2D2E82;stroke-width:4.9986;stroke-miterlimit:500;" d="M276.228,235.583h28.343
					v9.447h-28.343V235.583z"/>
				<path id="XMLID_605_" style="fill:none;stroke:#2D2E82;stroke-width:4.9986;stroke-miterlimit:500;" d="M367.057,216.284
					l4.589-14.981l24.429,81.519h-9.043L367.057,216.284z"/>
				<path id="XMLID_603_" style="fill:none;stroke:#2D2E82;stroke-width:4.9986;stroke-miterlimit:500;" d="M434.809,211.964h9.447
					v70.857h-9.447V211.964z"/>
				<path id="XMLID_601_" style="fill:none;stroke:#2D2E82;stroke-width:4.9986;stroke-miterlimit:500;" d="M569.5,264.331
					l19.975-66.537h9.042l-24.428,81.519L569.5,264.331z"/>
				<path id="XMLID_533_" style="fill:none;stroke:#2D2E82;stroke-width:4.9986;stroke-miterlimit:500;" d="M642.65,235.583h28.342
					v9.447H642.65V235.583z"/>
			</g>
		</g>
	</g>
	<g id="XMLID_20_">
		
			<line id="XMLID_172_" style="fill:none;stroke:#E5007E;stroke-width:8;stroke-miterlimit:10;" x1="65.027" y1="230.055" x2="97.693" y2="230.055"/>
		
			<line id="XMLID_185_" style="fill:none;stroke:#FFDD00;stroke-width:8;stroke-miterlimit:10;" x1="171.027" y1="330.055" x2="203.693" y2="330.055"/>
		
			<line id="XMLID_188_" style="fill:none;stroke:#2D2E82;stroke-width:8;stroke-miterlimit:10;" x1="215.527" y1="330.055" x2="223.36" y2="330.055"/>
		
			<line id="XMLID_217_" style="fill:none;stroke:#35A8E0;stroke-width:8;stroke-miterlimit:10;" x1="166.193" y1="129.722" x2="174.027" y2="129.722"/>
		
			<line id="XMLID_225_" style="fill:none;stroke:#2D2E82;stroke-width:8;stroke-miterlimit:10;" x1="46.193" y1="279.388" x2="54.027" y2="279.388"/>
		
			<line id="XMLID_224_" style="fill:none;stroke:#2D2E82;stroke-width:8;stroke-miterlimit:10;" x1="539.693" y1="177.722" x2="547.527" y2="177.722"/>
		
			<line id="XMLID_226_" style="fill:none;stroke:#2D2E82;stroke-width:8;stroke-miterlimit:10;" x1="692.36" y1="274.055" x2="700.193" y2="274.055"/>
		
			<line id="XMLID_212_" style="fill:none;stroke:#E5007E;stroke-width:8;stroke-miterlimit:10;" x1="519.443" y1="422.555" x2="527.277" y2="422.555"/>
		
			<line id="XMLID_213_" style="fill:none;stroke:#2D2E82;stroke-width:8;stroke-miterlimit:10;" x1="584.943" y1="374.722" x2="592.777" y2="374.722"/>
		
			<line id="XMLID_200_" style="fill:none;stroke:#FFDD00;stroke-width:8;stroke-miterlimit:10;" x1="269.193" y1="106.388" x2="277.027" y2="106.388"/>
		
			<line id="XMLID_211_" style="fill:none;stroke:#E5007E;stroke-width:8;stroke-miterlimit:10;" x1="243.11" y1="82.722" x2="250.943" y2="82.722"/>
		
			<line id="XMLID_208_" style="fill:none;stroke:#35A8E0;stroke-width:8;stroke-miterlimit:10;" x1="603.027" y1="330.055" x2="635.693" y2="330.055"/>
		
			<line id="XMLID_214_" style="fill:none;stroke:#2D2E82;stroke-width:8;stroke-miterlimit:10;" x1="287.693" y1="330.055" x2="347.693" y2="330.055"/>
		
			<line id="XMLID_186_" style="fill:none;stroke:#35A8E0;stroke-width:8;stroke-miterlimit:10;" x1="227.027" y1="265.388" x2="259.693" y2="265.388"/>
		
			<line id="XMLID_2_" style="fill:none;stroke:#FFFFFF;stroke-width:8;stroke-miterlimit:10;" x1="141.693" y1="282.388" x2="174.36" y2="282.388"/>
		
			<line id="XMLID_272_" style="fill:none;stroke:#FFFFFF;stroke-width:8;stroke-miterlimit:10;" x1="95.027" y1="250" x2="127.693" y2="250"/>
		
			<line id="XMLID_274_" style="fill:none;stroke:#FFFFFF;stroke-width:8;stroke-miterlimit:10;" x1="301.36" y1="265.388" x2="334.027" y2="265.388"/>
		
			<line id="XMLID_279_" style="fill:none;stroke:#FFFFFF;stroke-width:8;stroke-miterlimit:10;" x1="366.693" y1="242.055" x2="399.36" y2="242.055"/>
		
			<line id="XMLID_280_" style="fill:none;stroke:#FFFFFF;stroke-width:8;stroke-miterlimit:10;" x1="490.693" y1="260.055" x2="523.36" y2="260.055"/>
		
			<line id="XMLID_281_" style="fill:none;stroke:#FFFFFF;stroke-width:8;stroke-miterlimit:10;" x1="582.943" y1="235.055" x2="615.61" y2="235.055"/>
		
			<line id="XMLID_223_" style="fill:none;stroke:#2D2E82;stroke-width:8;stroke-miterlimit:10;" x1="350.36" y1="177.722" x2="383.027" y2="177.722"/>
		
			<line id="XMLID_222_" style="fill:none;stroke:#2D2E82;stroke-width:8;stroke-miterlimit:10;" x1="109.027" y1="177.722" x2="141.693" y2="177.722"/>
		
			<line id="XMLID_221_" style="fill:none;stroke:#35A8E0;stroke-width:8;stroke-miterlimit:10;" x1="454.027" y1="177.722" x2="517.027" y2="177.722"/>
		
			<line id="XMLID_220_" style="fill:none;stroke:#35A8E0;stroke-width:8;stroke-miterlimit:10;" x1="223.693" y1="106.388" x2="256.36" y2="106.388"/>
		
			<line id="XMLID_219_" style="fill:none;stroke:#FFDD00;stroke-width:8;stroke-miterlimit:10;" x1="190.86" y1="129.722" x2="240.193" y2="129.722"/>
		
			<line id="XMLID_198_" style="fill:none;stroke:#FFDD00;stroke-width:8;stroke-miterlimit:10;" x1="437.693" y1="244.722" x2="470.36" y2="244.722"/>
		
			<line id="XMLID_210_" style="fill:none;stroke:#E5007E;stroke-width:8;stroke-miterlimit:10;" x1="322.027" y1="215.382" x2="354.693" y2="215.382"/>
		
			<line id="XMLID_199_" style="fill:none;stroke:#E5007E;stroke-width:8;stroke-miterlimit:10;" x1="517.027" y1="279.388" x2="549.693" y2="279.388"/>
		
			<line id="XMLID_216_" style="fill:none;stroke:#35A8E0;stroke-width:8;stroke-miterlimit:10;" x1="507.027" y1="398.388" x2="539.693" y2="398.388"/>
		
			<line id="XMLID_202_" style="fill:none;stroke:#E5007E;stroke-width:8;stroke-miterlimit:10;" x1="653.693" y1="215.382" x2="686.36" y2="215.382"/>
		
			<line id="XMLID_203_" style="fill:none;stroke:#FFDD00;stroke-width:8;stroke-miterlimit:10;" x1="529.277" y1="208.555" x2="561.943" y2="208.555"/>
		
			<line id="XMLID_218_" style="fill:none;stroke:#E5007E;stroke-width:8;stroke-miterlimit:10;" x1="267.027" y1="129.722" x2="338.36" y2="129.722"/>
		
			<line id="XMLID_201_" style="fill:none;stroke:#E5007E;stroke-width:8;stroke-miterlimit:10;" x1="426.36" y1="374.722" x2="511.027" y2="374.722"/>
		
			<line id="XMLID_215_" style="fill:none;stroke:#FFDD00;stroke-width:8;stroke-miterlimit:10;" x1="533.36" y1="374.722" x2="566.027" y2="374.722"/>
	</g>
	<g id="XMLID_23_">
		
			<text id="XMLID_262_" transform="matrix(1 0 0 1 156.7443 182.7977)" style="fill:#35A8E0; font-family:'Montserrat-Black'; font-size:36.4193px; letter-spacing:5;">design</text>
		
			<text id="XMLID_261_" transform="matrix(1 0 0 1 361.2145 350.3616)" style="fill:#35A8E0; font-family:'Montserrat-Black'; font-size:36.4193px; letter-spacing:5;">thinking</text>
		
			<text id="XMLID_260_" transform="matrix(1 0 0 1 400.0377 182.7977)" style="fill:#35A8E0; font-family:'Montserrat-Black'; font-size:36.4193px; letter-spacing:5;">is</text>
	</g>
</g>
</svg>
